<svg width="25" height="24" viewBox="0 0 25 24" fill="none" xmlns="http://www.w3.org/2000/svg">
<mask id="mask0_92_792" style="mask-type:alpha" maskUnits="userSpaceOnUse" x="0" y="0" width="25" height="24">
<rect x="0.833374" width="24" height="24" fill="#D9D9D9"/>
</mask>
<g mask="url(#mask0_92_792)">
<path d="M6.83337 19H10.1796V13.9615C10.1796 13.7055 10.2662 13.4908 10.4394 13.3175C10.6127 13.1443 10.8274 13.0577 11.0834 13.0577H14.5834C14.8394 13.0577 15.054 13.1443 15.2274 13.3175C15.4005 13.4908 15.4871 13.7055 15.4871 13.9615V19H18.8334V10.1537C18.8334 10.1026 18.8221 10.0562 18.7996 10.0145C18.7773 9.97282 18.7469 9.93591 18.7084 9.90374L13.0161 5.62499C12.9648 5.58016 12.9039 5.55774 12.8334 5.55774C12.7629 5.55774 12.702 5.58016 12.6506 5.62499L6.95837 9.90374C6.91987 9.93591 6.88946 9.97282 6.86712 10.0145C6.84462 10.0562 6.83337 10.1026 6.83337 10.1537V19ZM5.33337 19V10.1537C5.33337 9.86757 5.39737 9.59649 5.52537 9.34049C5.65354 9.08432 5.83054 8.87341 6.05637 8.70774L11.7489 4.41924C12.0647 4.17824 12.4257 4.05774 12.8319 4.05774C13.238 4.05774 13.6 4.17824 13.9179 4.41924L19.6104 8.70774C19.8362 8.87341 20.0132 9.08432 20.1414 9.34049C20.2694 9.59649 20.3334 9.86757 20.3334 10.1537V19C20.3334 19.409 20.1856 19.7612 19.8901 20.0567C19.5946 20.3522 19.2424 20.5 18.8334 20.5H14.8911C14.635 20.5 14.4203 20.4133 14.2471 20.24C14.0738 20.0668 13.9871 19.8522 13.9871 19.596V14.5577H11.6796V19.596C11.6796 19.8522 11.593 20.0668 11.4196 20.24C11.2465 20.4133 11.0318 20.5 10.7756 20.5H6.83337C6.42437 20.5 6.07212 20.3522 5.77662 20.0567C5.48112 19.7612 5.33337 19.409 5.33337 19Z" fill="#959AA7"/>
</g>
</svg>
