<svg width="25" height="24" viewBox="0 0 25 24" fill="none" xmlns="http://www.w3.org/2000/svg">
<mask id="mask0_92_567" style="mask-type:alpha" maskUnits="userSpaceOnUse" x="0" y="0" width="25" height="24">
<rect x="0.166748" width="24" height="24" fill="#D9D9D9"/>
</mask>
<g mask="url(#mask0_92_567)">
<path d="M12.1667 17.4615L8.1975 19.1652C7.595 19.4229 7.02258 19.3736 6.48025 19.0173C5.93791 18.6609 5.66675 18.1597 5.66675 17.5135V5.30775C5.66675 4.80258 5.84175 4.375 6.19175 4.025C6.54175 3.675 6.96933 3.5 7.4745 3.5H16.859C17.3642 3.5 17.7917 3.675 18.1417 4.025C18.4917 4.375 18.6667 4.80258 18.6667 5.30775V17.5135C18.6667 18.1597 18.3956 18.6609 17.8532 19.0173C17.3109 19.3736 16.7385 19.4229 16.136 19.1652L12.1667 17.4615ZM12.1667 15.8L16.734 17.7673C16.8367 17.8121 16.9344 17.8025 17.0272 17.7385C17.1202 17.6743 17.1667 17.5878 17.1667 17.4788V5.30775C17.1667 5.23075 17.1347 5.16025 17.0705 5.09625C17.0065 5.03208 16.936 5 16.859 5H7.4745C7.3975 5 7.327 5.03208 7.263 5.09625C7.19883 5.16025 7.16675 5.23075 7.16675 5.30775V17.4788C7.16675 17.5878 7.21325 17.6743 7.30625 17.7385C7.39908 17.8025 7.49683 17.8121 7.5995 17.7673L12.1667 15.8Z" fill="#959AA7"/>
</g>
</svg>
