<svg width="166" height="32" viewBox="0 0 166 32" fill="none" xmlns="http://www.w3.org/2000/svg">
<path d="M10.8223 22.48C9.7556 22.48 8.82227 22.46 8.02227 22.42C7.22227 22.3933 6.46893 22.36 5.76227 22.32C5.0556 22.2933 4.32227 22.2733 3.56227 22.26C2.80227 22.26 1.92893 22.28 0.942266 22.32C0.835599 22.04 0.748932 21.6933 0.682266 21.28C0.615599 20.8533 0.575599 20.4067 0.562266 19.94C0.562266 19.4733 0.575599 19.0333 0.602266 18.62C0.642266 18.1933 0.708932 17.84 0.802266 17.56C1.08227 17.48 1.32227 17.3333 1.52227 17.12C1.72227 16.8933 1.8756 16.5467 1.98227 16.08C2.08893 15.6133 2.14227 14.98 2.14227 14.18C2.14227 13.42 2.0756 12.84 1.94227 12.44C1.82227 12.04 1.66227 11.76 1.46227 11.6C1.26227 11.44 1.04227 11.34 0.802266 11.3C0.668932 10.9133 0.575599 10.4267 0.522266 9.84C0.468932 9.24 0.468932 8.63333 0.522266 8.02C0.588932 7.39333 0.708932 6.86 0.882266 6.42C1.7356 6.5 2.54227 6.54 3.30227 6.54C4.0756 6.54 4.86893 6.52667 5.68227 6.5C6.4956 6.46 7.38227 6.42667 8.34227 6.4C9.30227 6.36 10.4023 6.34 11.6423 6.34C14.4689 6.34 16.6289 6.92667 18.1223 8.1C19.6289 9.27333 20.3823 11.1533 20.3823 13.74C20.3823 14.6067 20.3023 15.4667 20.1423 16.32C19.9956 17.16 19.7223 17.9533 19.3223 18.7C18.9356 19.4333 18.3823 20.0867 17.6623 20.66C16.9423 21.22 16.0223 21.6667 14.9023 22C13.7956 22.32 12.4356 22.48 10.8223 22.48ZM9.92227 15.58H11.1423V13H9.92227V15.58ZM27.3262 22.68C25.7262 22.68 24.4595 22.4733 23.5262 22.06C22.6062 21.6467 21.9462 21.1067 21.5462 20.44C21.1462 19.7733 20.9462 19.0533 20.9462 18.28C20.9462 17.1067 21.3595 16.1533 22.1862 15.42C23.0128 14.6867 24.3328 14.3133 26.1462 14.3L30.3862 14.26V13.2H29.2862V13.74C27.9262 13.7933 26.5862 13.8467 25.2662 13.9C23.9462 13.9533 22.6328 13.9333 21.3262 13.84C20.9928 11.76 21.0262 9.74667 21.4262 7.8C21.8128 7.8 22.2795 7.80667 22.8262 7.82C23.3862 7.83333 23.9728 7.85333 24.5862 7.88C25.2128 7.89333 25.8262 7.90667 26.4262 7.92C27.0262 7.93333 27.5595 7.94667 28.0262 7.96C27.8528 8.36 27.7528 8.76 27.7262 9.16C27.7128 9.56 27.7728 9.94667 27.9062 10.32C27.9728 9.21333 28.3928 8.44667 29.1662 8.02C29.9395 7.59333 31.0328 7.38 32.4462 7.38C34.2728 7.38 35.6728 7.64667 36.6462 8.18C37.6195 8.7 38.2662 9.48 38.5862 10.52C38.7462 11.0133 38.8128 11.5467 38.7862 12.12C38.7728 12.68 38.7328 13.2267 38.6662 13.76C38.5995 14.2933 38.5662 14.7733 38.5662 15.2C38.5662 16.0133 38.6928 16.5933 38.9462 16.94C39.2128 17.2733 39.4928 17.4933 39.7862 17.6C39.9062 17.9867 39.9728 18.4733 39.9862 19.06C40.0128 19.6467 39.9995 20.2333 39.9462 20.82C39.8928 21.4067 39.7995 21.9133 39.6662 22.34C39.0795 22.4733 38.4662 22.56 37.8262 22.6C37.1862 22.6533 36.6662 22.68 36.2662 22.68C35.2528 22.68 34.4595 22.56 33.8862 22.32C33.3128 22.08 33.0262 21.64 33.0262 21C33.0262 20.7733 33.0662 20.5333 33.1462 20.28C33.2395 20.0267 33.3462 19.7533 33.4662 19.46L32.9462 19.2C32.7062 19.7867 32.3728 20.3467 31.9462 20.88C31.5328 21.4133 30.9528 21.8467 30.2062 22.18C29.4728 22.5133 28.5128 22.68 27.3262 22.68ZM29.2862 16.82H30.3862V15.56H29.2862V16.82ZM41.0521 22.34C40.9454 22.0733 40.8588 21.7333 40.7921 21.32C40.7254 20.8933 40.6854 20.4467 40.6721 19.98C40.6721 19.5133 40.6854 19.0733 40.7121 18.66C40.7521 18.2333 40.8188 17.8867 40.9121 17.62C41.1121 17.54 41.3054 17.4133 41.4921 17.24C41.6788 17.0667 41.8321 16.8067 41.9521 16.46C42.0854 16.1133 42.1521 15.64 42.1521 15.04C42.1521 14.4533 42.0721 14 41.9121 13.68C41.7654 13.3467 41.5921 13.1067 41.3921 12.96C41.2054 12.8 41.0454 12.6867 40.9121 12.62C40.7921 12.3933 40.7054 12.0733 40.6521 11.66C40.5988 11.2333 40.5721 10.7733 40.5721 10.28C40.5854 9.78667 40.6254 9.31333 40.6921 8.86C40.7588 8.40667 40.8588 8.03333 40.9921 7.74C41.1388 7.75333 41.2654 7.77333 41.3721 7.8C41.4788 7.81333 41.5988 7.82667 41.7321 7.84C41.6788 8.66667 41.8454 9.38 42.2321 9.98C42.6188 10.5667 43.1454 10.9867 43.8121 11.24C44.4921 11.4933 45.2121 11.5467 45.9721 11.4C45.3321 11.3733 44.7388 11.2067 44.1921 10.9C43.6588 10.58 43.2254 10.16 42.8921 9.64C42.5721 9.10667 42.4121 8.51333 42.4121 7.86C42.4121 7.31333 42.5388 6.78667 42.7921 6.28C43.0588 5.76 43.4988 5.33333 44.1121 5C44.7254 4.65333 45.5521 4.48 46.5921 4.48C48.2588 4.48 49.4721 4.9 50.2321 5.74C51.0054 6.56667 51.3921 7.79333 51.3921 9.42C51.3921 10.18 51.3254 10.88 51.1921 11.52C51.0721 12.1467 50.9454 12.7533 50.8121 13.34C50.6921 13.9133 50.6321 14.5 50.6321 15.1C50.6321 15.6733 50.6921 16.1333 50.8121 16.48C50.9454 16.8267 51.1054 17.0867 51.2921 17.26C51.4921 17.42 51.6854 17.54 51.8721 17.62C51.9654 17.8867 52.0254 18.2333 52.0521 18.66C52.0921 19.0733 52.1054 19.5133 52.0921 19.98C52.0921 20.4467 52.0588 20.8933 51.9921 21.32C51.9254 21.7333 51.8388 22.0733 51.7321 22.34C51.3588 22.3 50.8721 22.2533 50.2721 22.2C49.6854 22.16 49.0454 22.12 48.3521 22.08C47.6588 22.0533 46.9654 22.04 46.2721 22.04C45.6321 22.04 44.9788 22.0533 44.3121 22.08C43.6588 22.12 43.0454 22.16 42.4721 22.2C41.8988 22.2533 41.4254 22.3 41.0521 22.34ZM53.1576 22.34C53.0509 22.0733 52.9642 21.7333 52.8976 21.32C52.8309 20.8933 52.7909 20.4467 52.7776 19.98C52.7776 19.5133 52.7909 19.0733 52.8176 18.66C52.8576 18.2333 52.9242 17.8867 53.0176 17.62C53.3242 17.5133 53.6042 17.3 53.8576 16.98C54.1109 16.66 54.2376 16.1733 54.2376 15.52C54.2376 14.8133 54.1842 14.3 54.0776 13.98C53.9709 13.66 53.8242 13.4533 53.6376 13.36C53.4642 13.2533 53.2576 13.1933 53.0176 13.18C52.8976 12.9533 52.8109 12.6333 52.7576 12.22C52.7042 11.8067 52.6776 11.36 52.6776 10.88C52.6909 10.3867 52.7309 9.92 52.7976 9.48C52.8642 9.02667 52.9642 8.65333 53.0976 8.36C54.8842 8.25333 56.5909 8.12 58.2176 7.96C59.8442 7.78667 61.5242 7.6 63.2576 7.4C63.3776 7.77333 63.4642 8.16667 63.5176 8.58C63.5842 8.98 63.6176 9.35333 63.6176 9.7C63.6176 10.3267 63.5509 10.9 63.4176 11.42C63.2976 11.9267 63.1709 12.44 63.0376 12.96C62.9042 13.4667 62.8376 14.0333 62.8376 14.66C62.8376 15.6467 62.9642 16.36 63.2176 16.8C63.4842 17.24 63.7642 17.5133 64.0576 17.62C64.1776 18.0333 64.2509 18.5467 64.2776 19.16C64.3042 19.76 64.2842 20.3533 64.2176 20.94C64.1642 21.5133 64.0642 21.98 63.9176 22.34C63.5442 22.3 63.0576 22.2533 62.4576 22.2C61.8709 22.16 61.2242 22.12 60.5176 22.08C59.8109 22.0533 59.0976 22.04 58.3776 22.04C57.7376 22.04 57.0842 22.0533 56.4176 22.08C55.7642 22.12 55.1509 22.16 54.5776 22.2C54.0042 22.2533 53.5309 22.3 53.1576 22.34ZM71.7412 25.46C70.3412 25.46 69.2012 25.34 68.3212 25.1C67.4412 24.86 66.7612 24.54 66.2812 24.14C65.8145 23.7533 65.4878 23.3267 65.3012 22.86C65.1278 22.4067 65.0412 21.9533 65.0412 21.5C65.0412 20.6733 65.2145 20 65.5612 19.48C65.9212 18.96 66.3878 18.58 66.9612 18.34C67.5478 18.0867 68.1878 17.96 68.8812 17.96C69.1745 17.96 69.5078 18 69.8812 18.08C70.2678 18.16 70.6545 18.3067 71.0412 18.52C71.4278 18.72 71.7745 19.02 72.0812 19.42L72.5212 19.06C72.1078 18.5533 71.6412 18.1667 71.1212 17.9C70.6012 17.6333 70.0745 17.4733 69.5412 17.42C69.1545 17.38 68.7878 17.28 68.4412 17.12C68.0945 16.96 67.7812 16.6867 67.5012 16.3C67.2212 15.9133 66.9878 15.3733 66.8012 14.68C66.6012 13.9333 66.3545 13.4067 66.0612 13.1C65.7812 12.78 65.4812 12.6133 65.1612 12.6C65.0545 12.3733 64.9745 12.0533 64.9212 11.64C64.8678 11.2133 64.8412 10.76 64.8412 10.28C64.8545 9.78667 64.8945 9.31333 64.9612 8.86C65.0278 8.40667 65.1212 8.03333 65.2412 7.74C65.7478 7.78 66.4612 7.83333 67.3812 7.9C68.3145 7.96667 69.3545 8 70.5012 8C71.3678 8 72.2078 7.96667 73.0212 7.9C73.8478 7.83333 74.5145 7.78 75.0212 7.74C74.8078 8.60667 74.7212 9.54667 74.7612 10.56C74.8145 11.5733 74.9612 12.6 75.2012 13.64C75.4412 14.68 75.7278 15.68 76.0612 16.64L76.0412 12.48H75.4812C75.3345 11.4933 75.2878 10.6 75.3412 9.8C75.3945 9 75.4945 8.31333 75.6412 7.74C75.9878 7.78 76.3545 7.82 76.7412 7.86C77.1412 7.9 77.6412 7.93333 78.2412 7.96C78.8412 7.98667 79.6145 8 80.5612 8C80.9612 8 81.4145 7.98667 81.9212 7.96C82.4412 7.92 82.9478 7.88 83.4412 7.84C83.9478 7.8 84.3678 7.76667 84.7012 7.74C84.8212 8.03333 84.9078 8.40667 84.9612 8.86C85.0278 9.31333 85.0612 9.78667 85.0612 10.28C85.0612 10.76 85.0345 11.2133 84.9812 11.64C84.9278 12.0533 84.8478 12.3733 84.7412 12.6C84.3412 12.6133 84.0345 12.8067 83.8212 13.18C83.6078 13.5533 83.4278 14.06 83.2812 14.7C83.1478 15.3267 82.9812 16.0333 82.7812 16.82C82.4478 18.3533 82.0145 19.6667 81.4812 20.76C80.9478 21.8533 80.2612 22.7467 79.4212 23.44C78.5812 24.1333 77.5345 24.64 76.2812 24.96C75.0412 25.2933 73.5278 25.46 71.7412 25.46ZM90.763 22.34C90.6564 22.06 90.5697 21.7067 90.503 21.28C90.4364 20.8533 90.3964 20.4133 90.383 19.96C90.383 19.4933 90.3964 19.0467 90.423 18.62C90.463 18.1933 90.5297 17.84 90.623 17.56C90.8364 17.48 91.043 17.3467 91.243 17.16C91.443 16.96 91.6097 16.6467 91.743 16.22C91.8764 15.78 91.943 15.1667 91.943 14.38C91.943 13.5267 91.863 12.8867 91.703 12.46C91.5564 12.02 91.3764 11.7267 91.163 11.58C90.963 11.42 90.783 11.34 90.623 11.34C90.503 11.1 90.4164 10.7733 90.363 10.36C90.3097 9.94667 90.283 9.50667 90.283 9.04C90.2964 8.56 90.3364 8.1 90.403 7.66C90.4697 7.20667 90.5697 6.82 90.703 6.5C91.0764 6.52667 91.563 6.56667 92.163 6.62C92.763 6.66 93.4297 6.7 94.163 6.74C94.8964 6.76667 95.643 6.78 96.403 6.78C97.3897 6.78 98.223 6.74667 98.903 6.68C99.5964 6.61333 100.216 6.55333 100.763 6.5C100.843 6.82 100.903 7.22 100.943 7.7C100.996 8.16667 101.023 8.66 101.023 9.18C101.036 9.7 101.03 10.1867 101.003 10.64C100.976 11.08 100.93 11.42 100.863 11.66H100.203L100.183 13.72C100.783 13.0933 101.17 12.4133 101.343 11.68C101.516 10.9467 101.603 10.1533 101.603 9.3C101.603 8.9 101.583 8.46667 101.543 8C101.516 7.53333 101.476 7.03333 101.423 6.5C101.796 6.52667 102.203 6.56667 102.643 6.62C103.096 6.67333 103.683 6.72 104.403 6.76C105.136 6.8 106.09 6.82 107.263 6.82C107.983 6.82 108.576 6.8 109.043 6.76C109.523 6.72 109.956 6.68 110.343 6.64C110.73 6.58667 111.136 6.54 111.563 6.5C111.67 6.78 111.756 7.13333 111.823 7.56C111.89 7.98667 111.923 8.43333 111.923 8.9C111.936 9.35333 111.923 9.79333 111.883 10.22C111.856 10.6467 111.796 11 111.703 11.28C111.13 11.32 110.636 11.4333 110.223 11.62C109.823 11.8067 109.463 12.04 109.143 12.32C109.29 13.8133 109.596 14.9667 110.063 15.78C110.543 16.58 111.19 17.1733 112.003 17.56C112.096 17.84 112.156 18.1933 112.183 18.62C112.223 19.0467 112.236 19.4933 112.223 19.96C112.223 20.4133 112.19 20.8533 112.123 21.28C112.056 21.7067 111.97 22.06 111.863 22.34C111.316 22.2867 110.71 22.22 110.043 22.14C109.376 22.06 108.55 22.02 107.563 22.02C106.323 22.02 105.323 22.04 104.563 22.08C103.816 22.12 103.21 22.16 102.743 22.2C102.29 22.2533 101.876 22.3 101.503 22.34C101.543 21.86 101.576 21.42 101.603 21.02C101.63 20.6067 101.643 20.2267 101.643 19.88C101.643 19.3333 101.616 18.82 101.563 18.34C101.523 17.8467 101.396 17.38 101.183 16.94C100.983 16.5 100.65 16.0867 100.183 15.7V17.56H100.923C100.976 17.8 101.01 18.1267 101.023 18.54C101.05 18.9533 101.056 19.4 101.043 19.88C101.03 20.36 101.003 20.82 100.963 21.26C100.923 21.7 100.863 22.06 100.783 22.34C100.41 22.3 100.036 22.2533 99.663 22.2C99.303 22.16 98.863 22.12 98.343 22.08C97.8364 22.04 97.183 22.02 96.383 22.02C95.0497 22.02 93.923 22.0533 93.003 22.12C92.0964 22.2 91.3497 22.2733 90.763 22.34ZM113.298 22.34C113.192 22.0733 113.105 21.7333 113.038 21.32C112.972 20.8933 112.932 20.4467 112.918 19.98C112.918 19.5133 112.932 19.0733 112.958 18.66C112.998 18.2333 113.065 17.8867 113.158 17.62C113.358 17.54 113.552 17.4133 113.738 17.24C113.925 17.0667 114.078 16.8067 114.198 16.46C114.332 16.1133 114.398 15.64 114.398 15.04C114.398 14.4533 114.318 14 114.158 13.68C114.012 13.3467 113.838 13.1067 113.638 12.96C113.452 12.8 113.292 12.6867 113.158 12.62C113.038 12.3933 112.952 12.0733 112.898 11.66C112.845 11.2333 112.818 10.7733 112.818 10.28C112.832 9.78667 112.872 9.31333 112.938 8.86C113.005 8.40667 113.105 8.03333 113.238 7.74C113.385 7.75333 113.512 7.77333 113.618 7.8C113.725 7.81333 113.845 7.82667 113.978 7.84C113.925 8.66667 114.092 9.38 114.478 9.98C114.865 10.5667 115.392 10.9867 116.058 11.24C116.738 11.4933 117.458 11.5467 118.218 11.4C117.578 11.3733 116.985 11.2067 116.438 10.9C115.905 10.58 115.472 10.16 115.138 9.64C114.818 9.10667 114.658 8.51333 114.658 7.86C114.658 7.31333 114.785 6.78667 115.038 6.28C115.305 5.76 115.745 5.33333 116.358 5C116.972 4.65333 117.798 4.48 118.838 4.48C120.505 4.48 121.718 4.9 122.478 5.74C123.252 6.56667 123.638 7.79333 123.638 9.42C123.638 10.18 123.572 10.88 123.438 11.52C123.318 12.1467 123.192 12.7533 123.058 13.34C122.938 13.9133 122.878 14.5 122.878 15.1C122.878 15.6733 122.938 16.1333 123.058 16.48C123.192 16.8267 123.352 17.0867 123.538 17.26C123.738 17.42 123.932 17.54 124.118 17.62C124.212 17.8867 124.272 18.2333 124.298 18.66C124.338 19.0733 124.352 19.5133 124.338 19.98C124.338 20.4467 124.305 20.8933 124.238 21.32C124.172 21.7333 124.085 22.0733 123.978 22.34C123.605 22.3 123.118 22.2533 122.518 22.2C121.932 22.16 121.292 22.12 120.598 22.08C119.905 22.0533 119.212 22.04 118.518 22.04C117.878 22.04 117.225 22.0533 116.558 22.08C115.905 22.12 115.292 22.16 114.718 22.2C114.145 22.2533 113.672 22.3 113.298 22.34ZM134.211 22.7C131.945 22.7 130.105 22.38 128.691 21.74C127.291 21.0867 126.265 20.18 125.611 19.02C124.971 17.8467 124.651 16.48 124.651 14.92C124.651 13.3733 124.958 12.0467 125.571 10.94C126.198 9.82 127.071 8.96 128.191 8.36C129.311 7.74667 130.618 7.44 132.111 7.44C133.565 7.44 134.691 7.67333 135.491 8.14C136.305 8.59333 136.731 9.45333 136.771 10.72C136.918 10.2533 136.971 9.78667 136.931 9.32C136.905 8.84 136.865 8.37333 136.811 7.92C137.251 7.92 137.751 7.91333 138.311 7.9C138.885 7.88667 139.471 7.87333 140.071 7.86C140.671 7.83333 141.238 7.81333 141.771 7.8C142.305 7.78667 142.758 7.78 143.131 7.78C143.211 8.14 143.271 8.6 143.311 9.16C143.365 9.70667 143.398 10.3067 143.411 10.96C143.425 11.6 143.411 12.2333 143.371 12.86C143.331 13.4867 143.271 14.0467 143.191 14.54C142.805 14.5933 142.311 14.64 141.711 14.68C141.111 14.7067 140.465 14.7267 139.771 14.74C139.078 14.7533 138.385 14.7533 137.691 14.74C136.998 14.7267 136.358 14.7067 135.771 14.68C135.198 14.64 134.738 14.5933 134.391 14.54L134.371 13.8H133.411V16.14H134.371V15.32C137.225 15.1867 140.205 15.1867 143.311 15.32C143.258 16.9867 142.918 18.3667 142.291 19.46C141.678 20.5533 140.718 21.3667 139.411 21.9C138.105 22.4333 136.371 22.7 134.211 22.7ZM144.462 22.34C144.356 22.0733 144.269 21.7333 144.202 21.32C144.136 20.8933 144.096 20.4467 144.082 19.98C144.082 19.5133 144.096 19.0733 144.122 18.66C144.162 18.2333 144.229 17.8867 144.322 17.62C144.522 17.54 144.716 17.4067 144.902 17.22C145.089 17.02 145.242 16.6867 145.362 16.22C145.482 15.74 145.542 15.0533 145.542 14.16C145.542 13.24 145.469 12.5533 145.322 12.1C145.189 11.6467 145.022 11.3333 144.822 11.16C144.636 10.9733 144.469 10.8467 144.322 10.78C144.202 10.5533 144.116 10.2333 144.062 9.82C144.009 9.39333 143.982 8.93333 143.982 8.44C143.996 7.94667 144.036 7.47333 144.102 7.02C144.169 6.56667 144.269 6.19333 144.402 5.9C144.789 5.92667 145.269 5.96667 145.842 6.02C146.416 6.07333 147.036 6.12 147.702 6.16C148.382 6.18667 149.042 6.2 149.682 6.2C150.629 6.2 151.489 6.17333 152.262 6.12C153.049 6.05333 153.722 5.99333 154.282 5.94C154.402 6.31333 154.489 6.67333 154.542 7.02C154.596 7.35333 154.622 7.69333 154.622 8.04C154.622 8.53333 154.556 9.1 154.422 9.74C154.302 10.38 154.176 11.02 154.042 11.66C153.909 12.3 153.842 12.8733 153.842 13.38V13.74C154.282 13.1 154.609 12.2933 154.822 11.32C155.049 10.3333 155.149 9.12 155.122 7.68C155.496 7.70667 155.896 7.74667 156.322 7.8C156.762 7.85333 157.302 7.9 157.942 7.94C158.582 7.98 159.382 8 160.342 8C161.129 8 161.776 7.98 162.282 7.94C162.789 7.9 163.229 7.86 163.602 7.82C163.989 7.76667 164.402 7.72 164.842 7.68C164.949 7.96 165.036 8.31333 165.102 8.74C165.169 9.15333 165.202 9.59333 165.202 10.06C165.216 10.5267 165.202 10.9733 165.162 11.4C165.136 11.8133 165.076 12.16 164.982 12.44C164.316 12.6267 163.742 12.8333 163.262 13.06C162.796 13.2867 162.376 13.5333 162.002 13.8C162.336 14.8133 162.796 15.62 163.382 16.22C163.982 16.8067 164.616 17.2733 165.282 17.62C165.376 17.8867 165.436 18.2267 165.462 18.64C165.502 19.0533 165.516 19.4933 165.502 19.96C165.502 20.4133 165.469 20.8533 165.402 21.28C165.336 21.7067 165.249 22.06 165.142 22.34C164.596 22.2867 163.989 22.22 163.322 22.14C162.656 22.06 161.829 22.02 160.842 22.02C159.749 22.02 158.856 22.04 158.162 22.08C157.469 22.12 156.896 22.16 156.442 22.2C156.002 22.2533 155.596 22.3 155.222 22.34C155.262 21.86 155.296 21.42 155.322 21.02C155.349 20.6067 155.362 20.2267 155.362 19.88C155.362 19.32 155.336 18.8067 155.282 18.34C155.229 17.8733 155.096 17.4333 154.882 17.02C154.669 16.6067 154.322 16.2067 153.842 15.82V17.62H154.562C154.656 17.8867 154.716 18.2333 154.742 18.66C154.782 19.0733 154.796 19.5133 154.782 19.98C154.782 20.4467 154.749 20.8933 154.682 21.32C154.616 21.7333 154.529 22.0733 154.422 22.34C153.862 22.2867 153.162 22.22 152.322 22.14C151.496 22.0733 150.616 22.04 149.682 22.04C149.042 22.04 148.389 22.0533 147.722 22.08C147.069 22.12 146.456 22.16 145.882 22.2C145.309 22.2533 144.836 22.3 144.462 22.34Z" fill="#ABD2FA"/>
</svg>
