<svg width="75" height="18" viewBox="0 0 75 18" fill="none" xmlns="http://www.w3.org/2000/svg">
<path d="M17.4278 0.0882591C17.4696 2.53991 17.4696 15.4258 17.4278 17.8186C16.8212 17.897 14.9176 17.8382 14.1227 17.8186C14.0809 15.4454 14.1018 2.0888 14.1227 0.0882591C14.7293 -0.0294197 16.7584 -0.0294197 17.4278 0.0882591ZM10.0018 0.186325C10.6084 0.0686461 12.6375 0.0882591 13.3278 0.186325C13.3906 2.6772 13.3487 15.2885 13.3278 17.6421C12.7003 17.7009 10.7967 17.7009 10.0018 17.6421C9.95994 16.5437 9.93902 13.1506 9.93902 9.63988C8.76759 9.63988 7.26147 9.63988 6.78035 9.60065C6.71759 8.99265 6.71759 7.07055 6.78035 6.59984C7.24055 6.58022 8.74668 6.58022 9.95994 6.58022C9.95994 3.59902 9.98086 0.990466 10.0018 0.186325ZM3.41249 13.6017C5.0232 13.5625 7.51249 13.5625 9.01862 13.6017C9.10229 14.4255 9.10229 15.7004 9.01862 16.5241C7.80535 16.5829 1.42524 16.6026 0.0864659 16.5241C-0.0390444 14.2098 -0.018126 2.89294 0.0864659 0.617815C1.96912 0.558975 5.96453 0.539362 7.59617 0.617815C7.67984 1.44157 7.67984 2.71643 7.59617 3.55979C6.40382 3.59902 4.98137 3.59902 3.41249 3.55979C3.43341 6.67829 3.43341 10.2087 3.41249 13.6017Z" fill="#1B4C7E"/>
<path d="M32.9894 8.1885C32.9267 6.52138 32.9267 1.55925 32.9894 0.0882591C33.5961 0.00980617 35.6461 -0.00980676 36.441 0.0882591C36.4828 2.28494 36.5247 6.20757 36.441 8.1885C35.7298 8.26696 33.7843 8.24734 32.9894 8.1885ZM24.9777 8.14928C20.8568 8.14928 19.0996 6.77636 19.0996 4.10896C19.0996 1.48079 20.8568 0.0686461 24.9777 0.0686461C29.0986 0.0686461 30.8558 1.48079 30.8558 4.10896C30.8558 6.77636 29.0986 8.14928 24.9777 8.14928ZM24.9777 5.38382C26.8604 5.38382 27.4042 4.93272 27.4042 4.10896C27.4042 3.28521 26.8604 2.8341 24.9777 2.8341C23.0532 2.8341 22.5512 3.28521 22.5512 4.10896C22.5512 4.93272 23.0532 5.38382 24.9777 5.38382ZM20.7731 17.897C20.6894 16.7987 20.6476 14.1509 20.7731 12.268H32.9476V11.6797H20.8149C20.7313 10.954 20.7313 9.54181 20.8149 9.0711C27.4252 9.01226 33.9308 9.01226 36.4619 9.0711C36.5665 10.2675 36.5665 13.4056 36.4619 14.7197H24.2874V15.3081H36.8175C36.9012 16.0142 36.8593 17.2106 36.8175 17.897C35.6252 18.0343 23.4716 18.0343 20.7731 17.897Z" fill="#1B4C7E"/>
<path d="M52.2118 17.8186C52.1281 15.5631 52.149 2.34378 52.2118 0.0882591C52.8184 -0.0294197 54.8894 -0.00980676 55.6843 0.0882591C55.7679 2.81449 55.7888 15.4846 55.6843 17.8186C54.973 17.897 53.0067 17.8774 52.2118 17.8186ZM38.9286 16.5241C38.7613 14.2098 38.7822 9.3653 38.9286 7.12939C40.1419 7.09017 44.1791 7.10978 45.3297 7.12939C45.3297 6.07028 45.3297 4.462 45.3506 3.52057C44.0746 3.54018 40.2674 3.55979 39.0123 3.52057C38.9286 2.69681 38.9286 1.44157 39.0123 0.617815C40.2465 0.539362 47.7144 0.539362 48.9067 0.617815C49.0741 2.91256 49.0531 7.75701 48.9067 10.0125C47.6307 10.091 44.6812 10.0321 42.5266 10.0125C42.5266 11.0716 42.5266 12.6799 42.5057 13.6214C44.3883 13.5429 48.6138 13.5625 50.371 13.6017C50.4756 14.4451 50.4756 15.7004 50.371 16.5241C49.1577 16.5829 40.6649 16.6026 38.9286 16.5241Z" fill="#1B4C7E"/>
<path d="M74.9275 10.3852C74.2163 10.4636 72.2709 10.444 71.476 10.3852C71.4132 8.7769 71.4132 1.50041 71.476 0.0882591C72.0826 0.00980617 74.1326 -0.00980676 74.9275 0.0882591C74.9694 2.2261 75.0112 8.46309 74.9275 10.3852ZM64.9913 7.63934C62.4393 7.65895 58.674 7.65895 57.9 7.61972C57.8163 6.73713 57.8163 5.5015 57.9 4.69736C58.4648 4.65813 62.2301 4.63852 64.9913 4.65813V3.26559C63.6944 3.30482 59.3643 3.30482 57.8163 3.26559C57.7326 2.42223 57.7326 1.20621 57.8163 0.402071C59.4689 0.323618 66.6229 0.304004 68.3801 0.402071C68.5265 2.63797 68.5893 7.42359 68.4428 9.75756C67.6061 9.83601 65.828 9.83601 64.9913 9.75756V7.63934ZM74.9275 11.2285C75.053 12.7976 74.9903 16.9752 74.9275 17.897C74.2163 17.9755 72.3337 17.9755 71.4969 17.897C71.4551 16.936 71.4969 15.3081 71.4969 14.1313C66.5393 14.1313 60.703 14.1901 59.1551 14.1313C59.0505 13.3075 59.0505 12.0719 59.1551 11.2285C60.8495 11.1501 73.0867 11.1305 74.9275 11.2285Z" fill="#1E88F4"/>
</svg>
