<svg width="25" height="24" viewBox="0 0 25 24" fill="none" xmlns="http://www.w3.org/2000/svg">
<mask id="mask0_92_562" style="mask-type:alpha" maskUnits="userSpaceOnUse" x="0" y="0" width="25" height="24">
<rect x="0.5" width="24" height="24" fill="#D9D9D9"/>
</mask>
<g mask="url(#mask0_92_562)">
<path d="M12.5017 21.5C11.1877 21.5 9.95267 21.2507 8.7965 20.752C7.64033 20.2533 6.63467 19.5766 5.7795 18.7218C4.92433 17.8669 4.24725 16.8617 3.74825 15.706C3.24942 14.5503 3 13.3156 3 12.0017C3 10.6877 3.24933 9.45267 3.748 8.2965C4.24667 7.14033 4.92342 6.13467 5.77825 5.2795C6.63308 4.42433 7.63833 3.74725 8.794 3.24825C9.94967 2.74942 11.1844 2.5 12.4983 2.5C13.8123 2.5 15.0473 2.74933 16.2035 3.248C17.3597 3.74667 18.3653 4.42342 19.2205 5.27825C20.0757 6.13308 20.7528 7.13833 21.2518 8.294C21.7506 9.44967 22 10.6844 22 11.9983C22 13.3123 21.7507 14.5473 21.252 15.7035C20.7533 16.8597 20.0766 17.8653 19.2218 18.7205C18.3669 19.5757 17.3617 20.2528 16.206 20.7518C15.0503 21.2506 13.8156 21.5 12.5017 21.5ZM11.5 19.95V18C10.95 18 10.4792 17.8042 10.0875 17.4125C9.69583 17.0208 9.5 16.55 9.5 16V15L4.7 10.2C4.65 10.5 4.60417 10.8 4.5625 11.1C4.52083 11.4 4.5 11.7 4.5 12C4.5 14.0167 5.1625 15.7833 6.4875 17.3C7.8125 18.8167 9.48333 19.7 11.5 19.95ZM18.4 17.4C18.7333 17.0333 19.0333 16.6375 19.3 16.2125C19.5667 15.7875 19.7875 15.3458 19.9625 14.8875C20.1375 14.4292 20.2708 13.9583 20.3625 13.475C20.4542 12.9917 20.5 12.5 20.5 12C20.5 10.3618 20.0474 8.86575 19.1423 7.51175C18.2371 6.15775 17.023 5.18075 15.5 4.58075V5C15.5 5.55 15.3042 6.02083 14.9125 6.4125C14.5208 6.80417 14.05 7 13.5 7H11.5V9C11.5 9.28333 11.4042 9.52083 11.2125 9.7125C11.0208 9.90417 10.7833 10 10.5 10H8.5V12H14.5C14.7833 12 15.0208 12.0958 15.2125 12.2875C15.4042 12.4792 15.5 12.7167 15.5 13V16H16.5C16.9333 16 17.325 16.1292 17.675 16.3875C18.025 16.6458 18.2667 16.9833 18.4 17.4Z" fill="#959AA7"/>
</g>
</svg>
