
<svg width="19" height="22" viewBox="0 0 19 22" fill="none" xmlns="http://www.w3.org/2000/svg">
<path d="M6.86113 0C6.44121 0 6.03848 0.166815 5.74155 0.463748C5.44462 0.76068 5.2778 1.16341 5.2778 1.58333V2.63889C5.2778 3.05882 5.44462 3.46154 5.74155 3.75847C6.03848 4.05541 6.44121 4.22222 6.86113 4.22222H12.1389C12.5588 4.22222 12.9616 4.05541 13.2585 3.75847C13.5554 3.46154 13.7222 3.05882 13.7222 2.63889V1.58333C13.7222 1.16341 13.5554 0.76068 13.2585 0.463748C12.9616 0.166815 12.5588 0 12.1389 0H6.86113Z" fill="#A7A7A7"/>
<path fill-rule="evenodd" clip-rule="evenodd" d="M3.69444 2.15002C2.36656 2.22391 1.52844 2.43502 0.927833 3.03669C-6.2916e-08 3.96452 0 5.45708 0 8.44219V14.7755C0 17.7617 -6.2916e-08 19.2542 0.927833 20.1821C1.85461 21.1089 3.34822 21.1089 6.33333 21.1089H12.6667C15.6518 21.1089 17.1454 21.1089 18.0722 20.1821C19 19.2532 19 17.7617 19 14.7755V8.44219C19 5.45708 19 3.96452 18.0722 3.03669C17.4716 2.43502 16.6334 2.22391 15.3056 2.15002V2.63875C15.3056 3.4786 14.9719 4.28405 14.3781 4.87792C13.7842 5.47178 12.9787 5.80541 12.1389 5.80541H6.86111C6.02126 5.80541 5.21581 5.47178 4.62194 4.87792C4.02807 4.28405 3.69444 3.4786 3.69444 2.63875V2.15002ZM4.22222 8.18041C4.01226 8.18041 3.8109 8.26382 3.66243 8.41229C3.51396 8.56075 3.43056 8.76212 3.43056 8.97208C3.43056 9.18204 3.51396 9.38341 3.66243 9.53187C3.8109 9.68034 4.01226 9.76375 4.22222 9.76375H4.75C4.95996 9.76375 5.16133 9.68034 5.30979 9.53187C5.45826 9.38341 5.54167 9.18204 5.54167 8.97208C5.54167 8.76212 5.45826 8.56075 5.30979 8.41229C5.16133 8.26382 4.95996 8.18041 4.75 8.18041H4.22222ZM7.91667 8.18041C7.7067 8.18041 7.50534 8.26382 7.35687 8.41229C7.20841 8.56075 7.125 8.76212 7.125 8.97208C7.125 9.18204 7.20841 9.38341 7.35687 9.53187C7.50534 9.68034 7.7067 9.76375 7.91667 9.76375H14.7778C14.9877 9.76375 15.1891 9.68034 15.3376 9.53187C15.486 9.38341 15.5694 9.18204 15.5694 8.97208C15.5694 8.76212 15.486 8.56075 15.3376 8.41229C15.1891 8.26382 14.9877 8.18041 14.7778 8.18041H7.91667ZM4.22222 11.8749C4.01226 11.8749 3.8109 11.9583 3.66243 12.1067C3.51396 12.2552 3.43056 12.4566 3.43056 12.6665C3.43056 12.8765 3.51396 13.0779 3.66243 13.2263C3.8109 13.3748 4.01226 13.4582 4.22222 13.4582H4.75C4.95996 13.4582 5.16133 13.3748 5.30979 13.2263C5.45826 13.0779 5.54167 12.8765 5.54167 12.6665C5.54167 12.4566 5.45826 12.2552 5.30979 12.1067C5.16133 11.9583 4.95996 11.8749 4.75 11.8749H4.22222ZM7.91667 11.8749C7.7067 11.8749 7.50534 11.9583 7.35687 12.1067C7.20841 12.2552 7.125 12.4566 7.125 12.6665C7.125 12.8765 7.20841 13.0779 7.35687 13.2263C7.50534 13.3748 7.7067 13.4582 7.91667 13.4582H14.7778C14.9877 13.4582 15.1891 13.3748 15.3376 13.2263C15.486 13.0779 15.5694 12.8765 15.5694 12.6665C15.5694 12.4566 15.486 12.2552 15.3376 12.1067C15.1891 11.9583 14.9877 11.8749 14.7778 11.8749H7.91667ZM4.22222 15.5693C4.01226 15.5693 3.8109 15.6527 3.66243 15.8012C3.51396 15.9496 3.43056 16.151 3.43056 16.361C3.43056 16.5709 3.51396 16.7723 3.66243 16.9208C3.8109 17.0692 4.01226 17.1526 4.22222 17.1526H4.75C4.95996 17.1526 5.16133 17.0692 5.30979 16.9208C5.45826 16.7723 5.54167 16.5709 5.54167 16.361C5.54167 16.151 5.45826 15.9496 5.30979 15.8012C5.16133 15.6527 4.95996 15.5693 4.75 15.5693H4.22222ZM7.91667 15.5693C7.7067 15.5693 7.50534 15.6527 7.35687 15.8012C7.20841 15.9496 7.125 16.151 7.125 16.361C7.125 16.5709 7.20841 16.7723 7.35687 16.9208C7.50534 17.0692 7.7067 17.1526 7.91667 17.1526H14.7778C14.9877 17.1526 15.1891 17.0692 15.3376 16.9208C15.486 16.7723 15.5694 16.5709 15.5694 16.361C15.5694 16.151 15.486 15.9496 15.3376 15.8012C15.1891 15.6527 14.9877 15.5693 14.7778 15.5693H7.91667Z" fill="#A7A7A7"/>
</svg>
